<svg width="466" height="3" viewBox="0 0 466 3" fill="none" xmlns="http://www.w3.org/2000/svg">
<path fill-rule="evenodd" clip-rule="evenodd" d="M1.49356 1.27348C1.49356 1.68592 1.15921 2.02026 0.746779 2.02026C0.334345 2.02026 0 1.68592 0 1.27348V0.767043C0 0.354608 0.334345 0.0202637 0.746779 0.0202637C1.15921 0.0202637 1.49356 0.354608 1.49356 0.767043V1.27348ZM7.46779 1.02026C7.46779 1.57255 7.02008 2.02026 6.46779 2.02026H5.48068C4.92839 2.02026 4.48068 1.57255 4.48068 1.02026C4.48068 0.467979 4.92839 0.0202637 5.48068 0.0202637H6.46779C7.02008 0.0202637 7.46779 0.467979 7.46779 1.02026ZM13.442 1.02026C13.442 1.57255 12.9943 2.02026 12.442 2.02026H11.4549C10.9026 2.02026 10.4549 1.57255 10.4549 1.02026C10.4549 0.467979 10.9026 0.0202637 11.4549 0.0202637H12.442C12.9943 0.0202637 13.442 0.467979 13.442 1.02026ZM19.4163 1.02026C19.4163 1.57255 18.9685 2.02026 18.4163 2.02026H17.4291C16.8769 2.02026 16.4291 1.57255 16.4291 1.02026C16.4291 0.467979 16.8769 0.0202637 17.4291 0.0202637H18.4163C18.9685 0.0202637 19.4163 0.467979 19.4163 1.02026ZM25.3905 1.02026C25.3905 1.57255 24.9428 2.02026 24.3905 2.02026H23.4034C22.8511 2.02026 22.4034 1.57255 22.4034 1.02026C22.4034 0.467979 22.8511 0.0202637 23.4034 0.0202637H24.3905C24.9428 0.0202637 25.3905 0.467979 25.3905 1.02026ZM31.3647 1.02026C31.3647 1.57255 30.917 2.02026 30.3647 2.02026H29.3776C28.8253 2.02026 28.3776 1.57255 28.3776 1.02026C28.3776 0.467979 28.8253 0.0202637 29.3776 0.0202637H30.3647C30.917 0.0202637 31.3647 0.467979 31.3647 1.02026ZM37.339 1.02026C37.339 1.57255 36.8913 2.02026 36.339 2.02026H35.3518C34.7996 2.02026 34.3518 1.57255 34.3518 1.02026C34.3518 0.467979 34.7996 0.0202637 35.3518 0.0202637H36.339C36.8913 0.0202637 37.339 0.467979 37.339 1.02026ZM43.3132 1.02026C43.3132 1.57255 42.8655 2.02026 42.3132 2.02026H41.3261C40.7738 2.02026 40.3261 1.57255 40.3261 1.02026C40.3261 0.467979 40.7738 0.0202637 41.3261 0.0202637H42.3132C42.8655 0.0202637 43.3132 0.467979 43.3132 1.02026ZM49.2874 1.02026C49.2874 1.57255 48.8397 2.02026 48.2874 2.02026H47.3003C46.748 2.02026 46.3003 1.57255 46.3003 1.02026C46.3003 0.467979 46.748 0.0202637 47.3003 0.0202637H48.2874C48.8397 0.0202637 49.2874 0.467979 49.2874 1.02026ZM55.2617 1.02026C55.2617 1.57255 54.814 2.02026 54.2617 2.02026H53.2746C52.7223 2.02026 52.2746 1.57255 52.2746 1.02026C52.2746 0.467979 52.7223 0.0202637 53.2746 0.0202637H54.2617C54.814 0.0202637 55.2617 0.467979 55.2617 1.02026ZM61.2359 1.02026C61.2359 1.57255 60.7882 2.02026 60.2359 2.02026H59.2488C58.6965 2.02026 58.2488 1.57255 58.2488 1.02026C58.2488 0.467979 58.6965 0.0202637 59.2488 0.0202637H60.2359C60.7882 0.0202637 61.2359 0.467979 61.2359 1.02026ZM67.2101 1.02026C67.2101 1.57255 66.7624 2.02026 66.2101 2.02026H65.223C64.6707 2.02026 64.223 1.57255 64.223 1.02026C64.223 0.467979 64.6707 0.0202637 65.223 0.0202637H66.2101C66.7624 0.0202637 67.2101 0.467979 67.2101 1.02026ZM73.1844 1.02026C73.1844 1.57255 72.7366 2.02026 72.1844 2.02026H71.1972C70.645 2.02026 70.1972 1.57255 70.1972 1.02026C70.1972 0.467979 70.645 0.0202637 71.1972 0.0202637H72.1844C72.7366 0.0202637 73.1844 0.467979 73.1844 1.02026ZM79.1586 1.02026C79.1586 1.57255 78.7109 2.02026 78.1586 2.02026H77.1715C76.6192 2.02026 76.1715 1.57255 76.1715 1.02026C76.1715 0.467979 76.6192 0.0202637 77.1715 0.0202637H78.1586C78.7109 0.0202637 79.1586 0.467979 79.1586 1.02026ZM85.1328 1.02026C85.1328 1.57255 84.6851 2.02026 84.1328 2.02026H83.1457C82.5934 2.02026 82.1457 1.57255 82.1457 1.02026C82.1457 0.467979 82.5934 0.0202637 83.1457 0.0202637H84.1328C84.6851 0.0202637 85.1328 0.467979 85.1328 1.02026ZM91.1071 1.02026C91.1071 1.57255 90.6593 2.02026 90.1071 2.02026H89.1199C88.5676 2.02026 88.1199 1.57255 88.1199 1.02026C88.1199 0.467979 88.5676 0.0202637 89.1199 0.0202637H90.1071C90.6593 0.0202637 91.1071 0.467979 91.1071 1.02026ZM97.0813 1.02026C97.0813 1.57255 96.6336 2.02026 96.0813 2.02026H95.0942C94.5419 2.02026 94.0942 1.57255 94.0942 1.02026C94.0942 0.467979 94.5419 0.0202637 95.0942 0.0202637H96.0813C96.6336 0.0202637 97.0813 0.467979 97.0813 1.02026ZM103.056 1.02026C103.056 1.57255 102.608 2.02026 102.056 2.02026H101.068C100.516 2.02026 100.068 1.57255 100.068 1.02026C100.068 0.467979 100.516 0.0202637 101.068 0.0202637H102.056C102.608 0.0202637 103.056 0.467979 103.056 1.02026ZM109.03 1.02026C109.03 1.57255 108.582 2.02026 108.03 2.02026H107.043C106.49 2.02026 106.043 1.57255 106.043 1.02026C106.043 0.467979 106.49 0.0202637 107.043 0.0202637H108.03C108.582 0.0202637 109.03 0.467979 109.03 1.02026ZM115.004 1.02026C115.004 1.57255 114.556 2.02026 114.004 2.02026H113.017C112.465 2.02026 112.017 1.57255 112.017 1.02026C112.017 0.467979 112.465 0.0202637 113.017 0.0202637H114.004C114.556 0.0202637 115.004 0.467979 115.004 1.02026ZM120.978 1.02026C120.978 1.57255 120.531 2.02026 119.978 2.02026H118.991C118.439 2.02026 117.991 1.57255 117.991 1.02026C117.991 0.467979 118.439 0.0202637 118.991 0.0202637H119.978C120.531 0.0202637 120.978 0.467979 120.978 1.02026ZM126.952 1.02026C126.952 1.57255 126.505 2.02026 125.952 2.02026H124.965C124.413 2.02026 123.965 1.57255 123.965 1.02026C123.965 0.467979 124.413 0.0202637 124.965 0.0202637H125.952C126.505 0.0202637 126.952 0.467979 126.952 1.02026ZM132.927 1.02026C132.927 1.57255 132.479 2.02026 131.927 2.02026H130.94C130.387 2.02026 129.94 1.57255 129.94 1.02026C129.94 0.467979 130.387 0.0202637 130.94 0.0202637H131.927C132.479 0.0202637 132.927 0.467979 132.927 1.02026ZM138.901 1.02026C138.901 1.57255 138.453 2.02026 137.901 2.02026H136.914C136.362 2.02026 135.914 1.57255 135.914 1.02026C135.914 0.467979 136.362 0.0202637 136.914 0.0202637H137.901C138.453 0.0202637 138.901 0.467979 138.901 1.02026ZM144.875 1.02026C144.875 1.57255 144.428 2.02026 143.875 2.02026H142.888C142.336 2.02026 141.888 1.57255 141.888 1.02026C141.888 0.467979 142.336 0.0202637 142.888 0.0202637H143.875C144.428 0.0202637 144.875 0.467979 144.875 1.02026ZM150.849 1.02026C150.849 1.57255 150.402 2.02026 149.849 2.02026H148.862C148.31 2.02026 147.862 1.57255 147.862 1.02026C147.862 0.467979 148.31 0.0202637 148.862 0.0202637H149.849C150.402 0.0202637 150.849 0.467979 150.849 1.02026ZM156.824 1.02026C156.824 1.57255 156.376 2.02026 155.824 2.02026H154.837C154.284 2.02026 153.837 1.57255 153.837 1.02026C153.837 0.467979 154.284 0.0202637 154.837 0.0202637H155.824C156.376 0.0202637 156.824 0.467979 156.824 1.02026ZM162.798 1.02026C162.798 1.57255 162.35 2.02026 161.798 2.02026H160.811C160.259 2.02026 159.811 1.57255 159.811 1.02026C159.811 0.467979 160.259 0.0202637 160.811 0.0202637H161.798C162.35 0.0202637 162.798 0.467979 162.798 1.02026ZM168.772 1.02026C168.772 1.57255 168.324 2.02026 167.772 2.02026H166.785C166.233 2.02026 165.785 1.57255 165.785 1.02026C165.785 0.467979 166.233 0.0202637 166.785 0.0202637H167.772C168.324 0.0202637 168.772 0.467979 168.772 1.02026ZM174.746 1.02026C174.746 1.57255 174.299 2.02026 173.746 2.02026H172.759C172.207 2.02026 171.759 1.57255 171.759 1.02026C171.759 0.467979 172.207 0.0202637 172.759 0.0202637H173.746C174.299 0.0202637 174.746 0.467979 174.746 1.02026ZM180.721 1.02026C180.721 1.57255 180.273 2.02026 179.721 2.02026H178.734C178.181 2.02026 177.734 1.57255 177.734 1.02026C177.734 0.467979 178.181 0.0202637 178.734 0.0202637H179.721C180.273 0.0202637 180.721 0.467979 180.721 1.02026ZM186.695 1.02026C186.695 1.57255 186.247 2.02026 185.695 2.02026H184.708C184.156 2.02026 183.708 1.57255 183.708 1.02026C183.708 0.467979 184.156 0.0202637 184.708 0.0202637H185.695C186.247 0.0202637 186.695 0.467979 186.695 1.02026ZM192.669 1.02026C192.669 1.57255 192.221 2.02026 191.669 2.02026H190.682C190.13 2.02026 189.682 1.57255 189.682 1.02026C189.682 0.467979 190.13 0.0202637 190.682 0.0202637H191.669C192.221 0.0202637 192.669 0.467979 192.669 1.02026ZM198.643 1.02026C198.643 1.57255 198.196 2.02026 197.643 2.02026H196.656C196.104 2.02026 195.656 1.57255 195.656 1.02026C195.656 0.467979 196.104 0.0202637 196.656 0.0202637H197.643C198.196 0.0202637 198.643 0.467979 198.643 1.02026ZM204.618 1.02026C204.618 1.57255 204.17 2.02026 203.618 2.02026H202.63C202.078 2.02026 201.63 1.57255 201.63 1.02026C201.63 0.467979 202.078 0.0202637 202.63 0.0202637H203.618C204.17 0.0202637 204.618 0.467979 204.618 1.02026ZM210.592 1.02026C210.592 1.57255 210.144 2.02026 209.592 2.02026H208.605C208.052 2.02026 207.605 1.57255 207.605 1.02026C207.605 0.467979 208.052 0.0202637 208.605 0.0202637H209.592C210.144 0.0202637 210.592 0.467979 210.592 1.02026ZM216.566 1.02026C216.566 1.57255 216.118 2.02026 215.566 2.02026H214.579C214.027 2.02026 213.579 1.57255 213.579 1.02026C213.579 0.467979 214.027 0.0202637 214.579 0.0202637H215.566C216.118 0.0202637 216.566 0.467979 216.566 1.02026ZM222.54 1.02026C222.54 1.57255 222.093 2.02026 221.54 2.02026H220.553C220.001 2.02026 219.553 1.57255 219.553 1.02026C219.553 0.467979 220.001 0.0202637 220.553 0.0202637H221.54C222.093 0.0202637 222.54 0.467979 222.54 1.02026ZM228.514 1.02026C228.514 1.57255 228.067 2.02026 227.514 2.02026H226.527C225.975 2.02026 225.527 1.57255 225.527 1.02026C225.527 0.467979 225.975 0.0202637 226.527 0.0202637H227.514C228.067 0.0202637 228.514 0.467979 228.514 1.02026ZM234.489 1.02026C234.489 1.57255 234.041 2.02026 233.489 2.02026H232.502C231.949 2.02026 231.502 1.57255 231.502 1.02026C231.502 0.467979 231.949 0.0202637 232.502 0.0202637H233.489C234.041 0.0202637 234.489 0.467979 234.489 1.02026ZM240.463 1.02026C240.463 1.57255 240.015 2.02026 239.463 2.02026H238.476C237.924 2.02026 237.476 1.57255 237.476 1.02026C237.476 0.467979 237.924 0.0202637 238.476 0.0202637H239.463C240.015 0.0202637 240.463 0.467979 240.463 1.02026ZM246.437 1.02026C246.437 1.57255 245.989 2.02026 245.437 2.02026H244.45C243.898 2.02026 243.45 1.57255 243.45 1.02026C243.45 0.467979 243.898 0.0202637 244.45 0.0202637H245.437C245.989 0.0202637 246.437 0.467979 246.437 1.02026ZM252.411 1.02026C252.411 1.57255 251.964 2.02026 251.411 2.02026H250.424C249.872 2.02026 249.424 1.57255 249.424 1.02026C249.424 0.467979 249.872 0.0202637 250.424 0.0202637H251.411C251.964 0.0202637 252.411 0.467979 252.411 1.02026ZM258.386 1.02026C258.386 1.57255 257.938 2.02026 257.386 2.02026H256.398C255.846 2.02026 255.398 1.57255 255.398 1.02026C255.398 0.467979 255.846 0.0202637 256.398 0.0202637H257.386C257.938 0.0202637 258.386 0.467979 258.386 1.02026ZM264.36 1.02026C264.36 1.57255 263.912 2.02026 263.36 2.02026H262.373C261.82 2.02026 261.373 1.57255 261.373 1.02026C261.373 0.467979 261.82 0.0202637 262.373 0.0202637H263.36C263.912 0.0202637 264.36 0.467979 264.36 1.02026ZM270.334 1.02026C270.334 1.57255 269.886 2.02026 269.334 2.02026H268.347C267.795 2.02026 267.347 1.57255 267.347 1.02026C267.347 0.467979 267.795 0.0202637 268.347 0.0202637H269.334C269.886 0.0202637 270.334 0.467979 270.334 1.02026ZM276.308 1.02026C276.308 1.57255 275.861 2.02026 275.308 2.02026H274.321C273.769 2.02026 273.321 1.57255 273.321 1.02026C273.321 0.467979 273.769 0.0202637 274.321 0.0202637H275.308C275.861 0.0202637 276.308 0.467979 276.308 1.02026ZM282.282 1.02026C282.282 1.57255 281.835 2.02026 281.282 2.02026H280.295C279.743 2.02026 279.295 1.57255 279.295 1.02026C279.295 0.467979 279.743 0.0202637 280.295 0.0202637H281.282C281.835 0.0202637 282.282 0.467979 282.282 1.02026ZM288.257 1.02026C288.257 1.57255 287.809 2.02026 287.257 2.02026H286.27C285.717 2.02026 285.27 1.57255 285.27 1.02026C285.27 0.467979 285.717 0.0202637 286.27 0.0202637H287.257C287.809 0.0202637 288.257 0.467979 288.257 1.02026ZM294.231 1.02026C294.231 1.57255 293.783 2.02026 293.231 2.02026H292.244C291.691 2.02026 291.244 1.57255 291.244 1.02026C291.244 0.467979 291.691 0.0202637 292.244 0.0202637H293.231C293.783 0.0202637 294.231 0.467979 294.231 1.02026ZM300.205 1.02026C300.205 1.57255 299.757 2.02026 299.205 2.02026H298.218C297.666 2.02026 297.218 1.57255 297.218 1.02026C297.218 0.467979 297.666 0.0202637 298.218 0.0202637H299.205C299.757 0.0202637 300.205 0.467979 300.205 1.02026ZM306.179 1.02026C306.179 1.57255 305.732 2.02026 305.179 2.02026H304.192C303.64 2.02026 303.192 1.57255 303.192 1.02026C303.192 0.467979 303.64 0.0202637 304.192 0.0202637H305.179C305.732 0.0202637 306.179 0.467979 306.179 1.02026ZM312.154 1.02026C312.154 1.57255 311.706 2.02026 311.154 2.02026H310.166C309.614 2.02026 309.166 1.57255 309.166 1.02026C309.166 0.467979 309.614 0.0202637 310.166 0.0202637H311.154C311.706 0.0202637 312.154 0.467979 312.154 1.02026ZM318.128 1.02026C318.128 1.57255 317.68 2.02026 317.128 2.02026H316.141C315.588 2.02026 315.141 1.57255 315.141 1.02026C315.141 0.467979 315.588 0.0202637 316.141 0.0202637H317.128C317.68 0.0202637 318.128 0.467979 318.128 1.02026ZM324.102 1.02026C324.102 1.57255 323.654 2.02026 323.102 2.02026H322.115C321.563 2.02026 321.115 1.57255 321.115 1.02026C321.115 0.467979 321.563 0.0202637 322.115 0.0202637H323.102C323.654 0.0202637 324.102 0.467979 324.102 1.02026ZM330.076 1.02026C330.076 1.57255 329.628 2.02026 329.076 2.02026H328.089C327.537 2.02026 327.089 1.57255 327.089 1.02026C327.089 0.467979 327.537 0.0202637 328.089 0.0202637H329.076C329.628 0.0202637 330.076 0.467979 330.076 1.02026ZM336.05 1.02026C336.05 1.57255 335.603 2.02026 335.05 2.02026H334.063C333.511 2.02026 333.063 1.57255 333.063 1.02026C333.063 0.467979 333.511 0.0202637 334.063 0.0202637H335.05C335.603 0.0202637 336.05 0.467979 336.05 1.02026ZM342.025 1.02026C342.025 1.57255 341.577 2.02026 341.025 2.02026H340.038C339.485 2.02026 339.038 1.57255 339.038 1.02026C339.038 0.467979 339.485 0.0202637 340.038 0.0202637H341.025C341.577 0.0202637 342.025 0.467979 342.025 1.02026ZM347.999 1.02026C347.999 1.57255 347.551 2.02026 346.999 2.02026H346.012C345.459 2.02026 345.012 1.57255 345.012 1.02026C345.012 0.467979 345.459 0.0202637 346.012 0.0202637H346.999C347.551 0.0202637 347.999 0.467979 347.999 1.02026ZM353.973 1.02026C353.973 1.57255 353.525 2.02026 352.973 2.02026H351.986C351.434 2.02026 350.986 1.57255 350.986 1.02026C350.986 0.467979 351.434 0.0202637 351.986 0.0202637H352.973C353.525 0.0202637 353.973 0.467979 353.973 1.02026ZM359.947 1.02026C359.947 1.57255 359.5 2.02026 358.947 2.02026H357.96C357.408 2.02026 356.96 1.57255 356.96 1.02026C356.96 0.467979 357.408 0.0202637 357.96 0.0202637H358.947C359.5 0.0202637 359.947 0.467979 359.947 1.02026ZM365.922 1.02026C365.922 1.57255 365.474 2.02026 364.922 2.02026H363.934C363.382 2.02026 362.934 1.57255 362.934 1.02026C362.934 0.467979 363.382 0.0202637 363.934 0.0202637H364.922C365.474 0.0202637 365.922 0.467979 365.922 1.02026ZM371.896 1.02026C371.896 1.57255 371.448 2.02026 370.896 2.02026H369.909C369.356 2.02026 368.909 1.57255 368.909 1.02026C368.909 0.467979 369.356 0.0202637 369.909 0.0202637H370.896C371.448 0.0202637 371.896 0.467979 371.896 1.02026ZM377.87 1.02026C377.87 1.57255 377.422 2.02026 376.87 2.02026H375.883C375.331 2.02026 374.883 1.57255 374.883 1.02026C374.883 0.467979 375.331 0.0202637 375.883 0.0202637H376.87C377.422 0.0202637 377.87 0.467979 377.87 1.02026ZM383.844 1.02026C383.844 1.57255 383.396 2.02026 382.844 2.02026H381.857C381.305 2.02026 380.857 1.57255 380.857 1.02026C380.857 0.467979 381.305 0.0202637 381.857 0.0202637H382.844C383.396 0.0202637 383.844 0.467979 383.844 1.02026ZM389.818 1.02026C389.818 1.57255 389.371 2.02026 388.818 2.02026H387.831C387.279 2.02026 386.831 1.57255 386.831 1.02026C386.831 0.467979 387.279 0.0202637 387.831 0.0202637H388.818C389.371 0.0202637 389.818 0.467979 389.818 1.02026ZM395.793 1.02026C395.793 1.57255 395.345 2.02026 394.793 2.02026H393.806C393.253 2.02026 392.806 1.57255 392.806 1.02026C392.806 0.467979 393.253 0.0202637 393.806 0.0202637H394.793C395.345 0.0202637 395.793 0.467979 395.793 1.02026ZM401.767 1.02026C401.767 1.57255 401.319 2.02026 400.767 2.02026H399.78C399.228 2.02026 398.78 1.57255 398.78 1.02026C398.78 0.467979 399.228 0.0202637 399.78 0.0202637H400.767C401.319 0.0202637 401.767 0.467979 401.767 1.02026ZM407.741 1.02026C407.741 1.57255 407.293 2.02026 406.741 2.02026H405.754C405.202 2.02026 404.754 1.57255 404.754 1.02026C404.754 0.467979 405.202 0.0202637 405.754 0.0202637H406.741C407.294 0.0202637 407.741 0.467979 407.741 1.02026ZM413.715 1.02026C413.715 1.57255 413.268 2.02026 412.715 2.02026H411.728C411.176 2.02026 410.728 1.57255 410.728 1.02026C410.728 0.467979 411.176 0.0202637 411.728 0.0202637H412.715C413.268 0.0202637 413.715 0.467979 413.715 1.02026ZM419.69 1.02026C419.69 1.57255 419.242 2.02026 418.69 2.02026H417.703C417.15 2.02026 416.703 1.57255 416.703 1.02026C416.703 0.467979 417.15 0.0202637 417.703 0.0202637H418.69C419.242 0.0202637 419.69 0.467979 419.69 1.02026ZM425.664 1.02026C425.664 1.57255 425.216 2.02026 424.664 2.02026H423.677C423.125 2.02026 422.677 1.57255 422.677 1.02026C422.677 0.467979 423.125 0.0202637 423.677 0.0202637H424.664C425.216 0.0202637 425.664 0.467979 425.664 1.02026ZM431.638 1.02026C431.638 1.57255 431.191 2.02026 430.638 2.02026H429.651C429.099 2.02026 428.651 1.57255 428.651 1.02026C428.651 0.467979 429.099 0.0202637 429.651 0.0202637H430.638C431.191 0.0202637 431.638 0.467979 431.638 1.02026ZM437.613 1.02026C437.613 1.57255 437.165 2.02026 436.613 2.02026H435.625C435.073 2.02026 434.625 1.57255 434.625 1.02026C434.625 0.467979 435.073 0.0202637 435.625 0.0202637H436.613C437.165 0.0202637 437.613 0.467979 437.613 1.02026ZM443.587 1.02026C443.587 1.57255 443.139 2.02026 442.587 2.02026H441.6C441.047 2.02026 440.6 1.57255 440.6 1.02026C440.6 0.467979 441.047 0.0202637 441.6 0.0202637H442.587C443.139 0.0202637 443.587 0.467979 443.587 1.02026ZM449.561 1.02026C449.561 1.57255 449.113 2.02026 448.561 2.02026H447.574C447.022 2.02026 446.574 1.57255 446.574 1.02026C446.574 0.467979 447.022 0.0202637 447.574 0.0202637H448.561C449.113 0.0202637 449.561 0.467979 449.561 1.02026ZM455.535 1.02026C455.535 1.57255 455.088 2.02026 454.535 2.02026H453.548C452.996 2.02026 452.548 1.57255 452.548 1.02026C452.548 0.467979 452.996 0.0202637 453.548 0.0202637H454.535C455.088 0.0202637 455.535 0.467979 455.535 1.02026ZM461.51 1.02026C461.51 1.57255 461.062 2.02026 460.51 2.02026H459.522C458.97 2.02026 458.522 1.57255 458.522 1.02026C458.522 0.467979 458.97 0.0202637 459.522 0.0202637H460.51C461.062 0.0202637 461.51 0.467979 461.51 1.02026ZM465.99 1.27352C465.99 1.68593 465.656 2.02026 465.243 2.02026C464.831 2.02026 464.497 1.68593 464.497 1.27352V0.767012C464.497 0.354594 464.831 0.0202637 465.243 0.0202637C465.656 0.0202637 465.99 0.354594 465.99 0.767012V1.27352Z" fill="url(#paint0_linear_245_3463)"/>
<defs>
<linearGradient id="paint0_linear_245_3463" x1="-4.50948" y1="3.02022" x2="193.246" y2="256.887" gradientUnits="userSpaceOnUse">
<stop stop-color="#F3BE61"/>
<stop offset="0.0520758" stop-color="#F3594D"/>
<stop offset="0.147859" stop-color="#F336CD"/>
<stop offset="0.229426" stop-color="#410CDE"/>
<stop offset="0.326834" stop-color="#E290FF"/>
<stop offset="1" stop-color="#0C0C0C"/>
</linearGradient>
</defs>
</svg>
